<?xml version="1.0" encoding="UTF-8" standalone="no"?>
<!-- Created with Inkscape (http://www.inkscape.org/) -->

<svg
   version="1.1"
   id="svg1"
   width="773.96185"
   height="720.71747"
   viewBox="0 0 773.96187 720.71746"
   sodipodi:docname="designKamikaze.svg"
   inkscape:version="1.3.2 (091e20ef0f, 2023-11-25)"
   xmlns:inkscape="http://www.inkscape.org/namespaces/inkscape"
   xmlns:sodipodi="http://sodipodi.sourceforge.net/DTD/sodipodi-0.dtd"
   xmlns:xlink="http://www.w3.org/1999/xlink"
   xmlns="http://www.w3.org/2000/svg"
   xmlns:svg="http://www.w3.org/2000/svg">
  <defs
     id="defs1">
    <linearGradient
       id="linearGradient96"
       inkscape:collect="always">
      <stop
         style="stop-color:#ffffff;stop-opacity:1;"
         offset="0"
         id="stop94" />
      <stop
         style="stop-color:#ffffff;stop-opacity:0;"
         offset="1"
         id="stop96" />
    </linearGradient>
    <linearGradient
       id="linearGradient81"
       inkscape:collect="always">
      <stop
         style="stop-color:#ffffff;stop-opacity:1;"
         offset="0"
         id="stop82" />
      <stop
         style="stop-color:#ffffff;stop-opacity:0;"
         offset="0.99888265"
         id="stop83" />
    </linearGradient>
    <linearGradient
       id="linearGradient79"
       inkscape:collect="always">
      <stop
         style="stop-color:#ffffff;stop-opacity:1;"
         offset="0"
         id="stop79" />
      <stop
         style="stop-color:#ffffff;stop-opacity:1;"
         offset="0.47585866"
         id="stop81" />
      <stop
         style="stop-color:#ffffff;stop-opacity:0;"
         offset="1"
         id="stop80" />
    </linearGradient>
    <linearGradient
       id="linearGradient60"
       inkscape:collect="always">
      <stop
         style="stop-color:#ffffff;stop-opacity:0;"
         offset="0"
         id="stop60" />
      <stop
         style="stop-color:#ffffff;stop-opacity:1;"
         offset="1"
         id="stop61" />
    </linearGradient>
    <radialGradient
       inkscape:collect="always"
       xlink:href="#linearGradient60"
       id="radialGradient61"
       cx="2036.8438"
       cy="355.74588"
       fx="2036.8438"
       fy="355.74588"
       r="306.46332"
       gradientTransform="matrix(0.93956992,-0.98098704,1.3322035,1.2759582,-1860.5934,2219.0042)"
       gradientUnits="userSpaceOnUse" />
    <radialGradient
       inkscape:collect="always"
       xlink:href="#linearGradient79"
       id="radialGradient81"
       cx="885.04279"
       cy="853.29663"
       fx="885.04279"
       fy="853.29663"
       r="134.68604"
       gradientTransform="matrix(0.74936343,0.51907806,-0.39194133,0.56582338,30.20896,-213.86404)"
       gradientUnits="userSpaceOnUse" />
    <linearGradient
       inkscape:collect="always"
       xlink:href="#linearGradient81"
       id="linearGradient83"
       x1="-266.81433"
       y1="232.55843"
       x2="-269.00409"
       y2="398.72855"
       gradientUnits="userSpaceOnUse"
       gradientTransform="translate(696.78755,96.58103)" />
    <linearGradient
       inkscape:collect="always"
       xlink:href="#linearGradient96"
       id="linearGradient97"
       x1="263.12186"
       y1="606.12152"
       x2="171.5116"
       y2="706.73871"
       gradientUnits="userSpaceOnUse"
       gradientTransform="matrix(0.65866404,0,0,0.6473977,62.646179,244.5206)" />
    <linearGradient
       inkscape:collect="always"
       xlink:href="#linearGradient96"
       id="linearGradient98"
       gradientUnits="userSpaceOnUse"
       gradientTransform="matrix(0.63089941,-0.18922011,0.18598353,0.62010798,440.92942,390.90875)"
       x1="263.12186"
       y1="606.12152"
       x2="171.5116"
       y2="706.73871" />
  </defs>
  <sodipodi:namedview
     id="namedview1"
     pagecolor="#000000"
     bordercolor="#000000"
     borderopacity="0.25"
     inkscape:showpageshadow="2"
     inkscape:pageopacity="0.0"
     inkscape:pagecheckerboard="false"
     inkscape:deskcolor="#d1d1d1"
     showgrid="false"
     inkscape:zoom="0.35355339"
     inkscape:cx="483.66104"
     inkscape:cy="626.49661"
     inkscape:window-width="1920"
     inkscape:window-height="1011"
     inkscape:window-x="0"
     inkscape:window-y="0"
     inkscape:window-maximized="1"
     inkscape:current-layer="g1"
     showguides="true">
    <sodipodi:guide
       position="378.43283,786.57359"
       orientation="0,-1"
       id="guide12"
       inkscape:locked="false" />
    <sodipodi:guide
       position="-954.56718,1463.5736"
       orientation="0,-1"
       id="guide14"
       inkscape:locked="false" />
    <sodipodi:guide
       position="-1048.0672,1298.5736"
       orientation="1,0"
       id="guide15"
       inkscape:locked="false" />
    <sodipodi:guide
       position="-981.73905,1352.4642"
       orientation="1,0"
       id="guide16"
       inkscape:locked="false" />
    <sodipodi:guide
       position="-1047.8797,1354.8236"
       orientation="0,-1"
       id="guide17"
       inkscape:locked="false" />
    <sodipodi:guide
       position="-1045.8797,1345.3236"
       orientation="0,-1"
       id="guide18"
       inkscape:locked="false" />
    <sodipodi:guide
       position="-1044.2392,1356.1268"
       orientation="1,0"
       id="guide19"
       inkscape:locked="false" />
    <sodipodi:guide
       position="-985.54937,1350.2047"
       orientation="1,0"
       id="guide20"
       inkscape:locked="false" />
    <sodipodi:guide
       position="-1035.5772,1350.1164"
       orientation="0,-1"
       id="guide21"
       inkscape:locked="false" />
  </sodipodi:namedview>
  <g
     inkscape:groupmode="layer"
     inkscape:label="Image"
     id="g1"
     transform="translate(-146.56717,-117.80307)">
    <g
       id="g3"
       transform="translate(39.881452,-24.313081)">
      <path
         style="fill:#fefcf8;fill-opacity:1"
         d="m 204.91611,625.98375 -19.11787,-12.46497 79.17707,-22.72535 -21.17192,80.02472 -15.28602,-23.16048 -24.49115,3.32734 z"
         id="path3"
         sodipodi:nodetypes="ccccccc" />
      <path
         style="fill:#709db2;fill-opacity:1"
         d="m 204.04115,650.35026 c 3.1137,-8.08661 20.45845,-26.37943 44.08569,-46.52543 l -43.2051,22.14386 z"
         id="path1"
         sodipodi:nodetypes="cccc" />
      <path
         style="fill:#709db2;fill-opacity:1"
         d="m 204.75836,650.88037 c 15.6181,-11.8562 31.09103,-26.79604 46.52192,-42.62887 l -22.70296,39.50048 z"
         id="path2"
         sodipodi:nodetypes="cccc" />
    </g>
    <g
       id="g6"
       transform="translate(728.78516,-2.4140625)">
      <path
         style="fill:#fefcf8;fill-opacity:1"
         d="m -229.94544,787.92566 29.70297,-38.34259 20.90453,45.41435 -14.95213,-5.54257 -11.5219,12.54907 -7.33106,-14.27644 z"
         id="path4"
         sodipodi:nodetypes="ccccccc" />
      <path
         style="fill:#709db2;fill-opacity:1"
         d="m -213.4075,787.73059 9.77934,-24.57058 c -1.56297,26.62464 -2.00445,34.90329 -2.18036,38.8377 z"
         id="path5"
         sodipodi:nodetypes="cccc" />
      <path
         style="fill:#709db2;fill-opacity:1"
         d="m -200.36279,763.44189 c -0.88238,30.36872 -3.14515,34.32225 -5.39502,38.5227 l 11.12354,-12.32763 c -2.17017,-11.09612 -3.6406,-15.97437 -5.72852,-26.19507 z"
         id="path6"
         sodipodi:nodetypes="cccc" />
    </g>
    <g
       id="g9"
       transform="translate(850.00391,-24.238278)">
      <path
         style="fill:#fffcf7;fill-opacity:1"
         d="m -161.47446,695.59972 82.058227,-62.62591 6.77275,98.70631 -24.19009,-18.04849 -26.235457,14.28162 -6.6526,-28.11578 z"
         id="path7" />
      <path
         style="fill:#709db2;fill-opacity:1"
         d="m -129.82314,699.8099 38.214837,-44.99105 c -11.491957,24.02211 -21.959697,48.44749 -31.571907,73.20972 z"
         id="path8"
         sodipodi:nodetypes="cccc" />
      <path
         style="fill:#709db2;fill-opacity:1"
         d="m -119.49828,725.78641 c 11.07574,-24.12441 27.072947,-47.10355 32.911537,-72.44668 l -10.41808,60.45348 z"
         id="path9"
         sodipodi:nodetypes="cccc" />
    </g>
    <path
       id="path10"
       style="fill:#ffffff;fill-opacity:1"
       d="m 852.00283,238.82574 -577.59956,283.91797 117.1543,26.57617 C 545.08277,449.95733 697.56542,348.96963 847.1376,243.46246 751.89491,380.23476 660.08992,517.65494 567.44033,654.91558 l 54.74805,106.02734 z M 794.76064,294.66949 440.38955,597.94683 490.20596,710.1773 C 590.71183,568.04713 689.1829,418.62305 794.76064,294.66949 Z" />
    <path
       id="path12"
       style="fill:url(#linearGradient83)"
       d="m 547.72361,197.39039 a 174.29688,174.29688 0 0 0 -174.29687,174.29688 174.29688,174.29688 0 0 0 9.84961,56.58594 L 544.34471,207.63649 637.82518,311.99586 699.29588,285.74 A 174.29688,174.29688 0 0 0 547.72361,197.39039 Z m -1.82812,20.75196 1.0332,116.34961 29.3457,-43.06055 34.3711,38.1582 -6.95313,-46.52344 z" />
    <path
       id="path19"
       style="fill:url(#radialGradient61)"
       d="m 615.93362,126.71875 c -2.9451,-0.0758 -4.4141,2.91797 -4.4141,2.91797 l -13.7305,48.04296 c 0,0 -1.3848,3.70979 3.5391,5.20704 4.836,1.47046 5.3164,-2.28907 5.3164,-2.28907 l 13.7305,-48.04101 c 0,0 0.7583,-4.36926 -3.0899,-5.59961 -0.481,-0.1538 -0.9308,-0.22745 -1.3515,-0.23828 z m -127.416,2.67969 c -0.4205,-0.0164 -0.8741,0.0291 -1.3633,0.15429 -3.9139,1.00164 -3.4629,5.33399 -3.4629,5.33399 l 13.1855,45.88671 c 0,0 0.7965,3.87823 5.7637,2.53125 4.8784,-1.32294 3.2891,-4.76171 3.2891,-4.76171 l -13.1856,-45.88672 c 0,0 -1.2835,-3.14328 -4.2265,-3.25781 z m -87.543,24.82617 c -0.8794,-0.0184 -1.814,0.25159 -2.7207,0.99804 -2.9016,2.38865 -0.7403,6.67578 -0.7403,6.67579 l 33.7813,51.30859 c 0,0 2.4921,4.92621 7.0566,1.75195 4.169,-2.89923 -0.125,-7.69922 -0.125,-7.69922 l -33.0918,-50.74023 c -0.5535,-0.81949 -2.2256,-2.25444 -4.1601,-2.29492 z m 299.0469,0.0781 c -2.2396,-0.008 -3.8575,1.83008 -3.8575,1.83008 l -31.4355,52.70703 c 0,0 -2.3112,3.21743 2.0469,5.95508 4.2801,2.68871 5.7304,-0.8125 5.7304,-0.8125 l 31.4356,-52.70703 c 0,0 1.8803,-4.01524 -1.5098,-6.21289 -0.8475,-0.54941 -1.6636,-0.75721 -2.4101,-0.75977 z m -47.4493,0.42188 c -2.5563,-0.0794 -4.1992,2.28125 -4.1992,2.28125 l -14.5137,32.05664 c 0,0 -1.93,3.45717 2.711,5.68164 4.5581,2.18469 5.6016,-1.45703 5.6016,-1.45703 l 14.5136,-32.05664 c 0,0 1.4111,-4.20396 -2.207,-6.00196 -0.6784,-0.33712 -1.3163,-0.48559 -1.9063,-0.5039 z m -201.7695,0.19922 c -0.723,-0.007 -1.4965,0.1898 -2.291,0.6914 -3.1779,2.00643 -1.5703,6.53125 -1.5703,6.53125 l 15.1523,30.17969 c 0,0 1.8532,5.19867 6.7793,2.62109 4.4992,-2.35425 0.8418,-7.65429 0.8418,-7.65429 l -14.539,-29.5293 c -0.4871,-0.96258 -2.2042,-2.81852 -4.3731,-2.83984 z m 265.6289,37.0625 c -1.7199,0.10321 -3.0625,1.14843 -3.0625,1.14843 l -20.0683,23.14258 c 0,0 -2.8668,2.73221 0.9062,6.23242 3.7056,3.43766 5.7813,0.26758 5.7813,0.26758 l 20.0683,-23.14453 c 0,0 2.5923,-3.59509 -0.3301,-6.38477 -1.0958,-1.04612 -2.2629,-1.32364 -3.2949,-1.26171 z m -331.0918,0.79687 c -1.0363,-0.0222 -2.1278,0.32516 -3.0957,1.34961 -2.581,2.73189 0.0977,6.71875 0.0977,6.71875 l 19.3086,22.22852 c 0,0 3.0858,4.57617 7.2187,0.85742 3.7748,-3.39655 -1.084,-7.625 -1.084,-7.625 l -18.5527,-21.75 c -0.5922,-0.67642 -2.1654,-1.74226 -3.8926,-1.7793 z m 370.5332,14.07422 c -1.491,0.0363 -2.6855,0.72266 -2.6855,0.72266 l -38.4434,34.0371 c 0,0 -3.2219,2.30104 0.0235,6.29493 3.1878,3.92251 5.6875,1.07422 5.6875,1.07422 l 38.4414,-34.03711 c 0,0 3.0714,-3.1959 0.5683,-6.36719 l 0.002,-0.002 c -1.0951,-1.38743 -2.4341,-1.7509 -3.5938,-1.72266 z m -411.6484,0.53906 c -1.1248,-0.0172 -2.3637,0.34731 -3.4492,1.5586 -2.8947,3.23001 0.1328,6.95312 0.1328,6.95312 l 39.5918,34.4668 c 0,0 3.0637,3.10062 6.6914,-1.06836 3.5629,-4.09455 0.0566,-6.32227 0.0566,-6.32227 l -39.5918,-34.46875 c 0,0 -1.557,-1.09044 -3.4316,-1.11914 z m -34.3692,32.62695 c -1.2875,-0.0318 -3.2266,0.2678 -4.4101,2.08985 -1.8936,2.91528 0.7305,5.60937 0.7305,5.60937 l 50.625,31.43946 c 0,0 2.9497,1.85588 5.3085,-1.89258 2.3168,-3.6815 -0.3183,-5.65039 -0.3183,-5.65039 l -50.625,-31.43946 c 0,0 -0.538,-0.13719 -1.3106,-0.15625 z m -0.4433,47.16407 c 0,0 -3.5084,-0.0833 -4.8086,2.73437 -1.3002,2.81761 1.0254,4.89844 1.0254,4.89844 l 34.5254,14.90627 c 0,0 3.3103,1.24421 4.914,-2.36914 1.5751,-3.54881 -1.1308,-5.26367 -1.1308,-5.26367 z m -33.0039,32.79687 c 0,0 -3.4869,0.39057 -4.3965,3.35742 -0.9096,2.96686 1.6738,4.71485 1.6738,4.71485 l 52.2422,14.5625 c 0,0 3.4475,0.78836 4.5508,-3.00781 1.0836,-3.72836 -1.8281,-5.06446 -1.8281,-5.06446 z m 579.6582,42.09766 -51.1543,5.02539 c 0,0 -3.9576,-0.0261 -3.7344,5.11328 0.2192,5.04749 3.9238,4.20703 3.9238,4.20703 l 51.1524,-5.02539 c 0,0 4.3715,-0.78892 4.2539,-4.82617 -0.1175,-4.03717 -4.4414,-4.49414 -4.4414,-4.49414 z m -602.9922,0.31836 c 0,0 -3.822,0.14261 -4.0879,3.89453 -0.2659,3.75192 3.7266,4.35156 3.7266,4.35156 l 64.0586,3.87891 c 0,0 3.6299,0.86524 3.9004,-3.91992 0.2656,-4.69969 -3.5391,-4.32618 -3.5391,-4.32618 z m 60.8301,38.07812 -32.7129,0.14258 c 0,0 -2.8262,1.32523 -2.8828,4.42774 -0.057,3.10245 2.5215,4.08007 2.5215,4.08007 l 32.7109,-0.14257 c 0,0 3.0738,-0.18158 3.0957,-4.13477 0.022,-3.88256 -2.7324,-4.37305 -2.7324,-4.37305 z m 510.3808,0.008 -22.1035,0.17773 c 0,0 -3.9376,-0.41753 -4.2226,4.71875 -0.28,5.04447 3.4882,4.57422 3.4882,4.57422 l 22.1055,-0.17774 c 0,0 4.4295,-0.35365 4.7109,-4.38281 0.2814,-4.02906 -3.9785,-4.91015 -3.9785,-4.91015 z m -510.5781,32.4414 -63.9805,10.14453 c -0.01,-0.0594 -2.3451,1.46999 -2.1289,4.6836 0.2161,3.21361 3.1094,3.65234 3.1094,3.65234 l 63.9277,-10.01562 c 0,0 3.0094,-0.64362 2.4336,-4.55469 -0.5656,-3.84121 -3.3613,-3.91016 -3.3613,-3.91016 z m 484.3242,0.87891 c -1.1267,-0.0436 -3.4777,0.34109 -4.2597,4.11914 -1.0241,4.94736 2.7734,5.04101 2.7734,5.04101 l 55.1055,7.85352 c 0,0 4.4316,0.30632 5.3066,-3.63672 0.875,-3.94293 -3.2051,-5.44531 -3.2051,-5.44531 l -55.1054,-7.85547 c 0,0 -0.2397,-0.0616 -0.6153,-0.0762 z m -484.6543,28.98828 -62.3008,17.74805 c -0.012,-0.0584 -2.1507,1.73982 -1.5507,4.90429 0.6001,3.16449 3.5234,3.25196 3.5234,3.25196 l 62.2656,-17.61133 c 0,0 2.91,-1.00069 1.8692,-4.81445 -1.0222,-3.74565 -3.8067,-3.47852 -3.8067,-3.47852 z m 474.4043,1.41211 c -1.2237,0.013 -3.0432,0.60375 -4.0469,3.6582 -1.577,4.79978 2.1856,5.32227 2.1856,5.32227 l 60.75,15.59375 c 0,0 4.3681,0.80702 5.6836,-3.01172 1.3155,-3.81864 -2.5684,-5.77344 -2.5684,-5.77344 l -60.75,-15.5957 c 0,0 -0.5196,-0.20119 -1.2539,-0.19336 z m -10.9414,31.94141 c -1.2237,0.013 -3.0432,0.60374 -4.0469,3.6582 -1.5772,4.79977 2.1856,5.32226 2.1856,5.32226 l 31.4297,11.7461 c 0,0 4.3682,0.80507 5.6836,-3.01367 1.3155,-3.81864 -2.5684,-5.77344 -2.5684,-5.77344 l -31.4297,-11.7461 c 0,0 -0.5196,-0.20118 -1.2539,-0.19335 z m -12.0527,31.72265 c -1.153,0.021 -2.6282,0.59938 -3.9121,2.82813 -2.5219,4.37782 1.0566,5.65429 1.0566,5.65429 l 43.1973,27.04102 c 0,0 4.1138,1.67966 6.1797,-1.79102 v -0.002 c 2.0659,-3.47057 -1.3399,-6.17578 -1.3399,-6.17578 l -43.1972,-27.03906 c 0,0 -0.8314,-0.53667 -1.9844,-0.51563 z m -16.0137,30.73438 c -1.0826,0.0377 -2.4173,0.58204 -3.7461,2.39843 -2.9831,4.07756 0.4336,5.73633 0.4336,5.73633 l 19.5195,15.96094 c 0,0 3.9049,2.11601 6.336,-1.10938 2.431,-3.22527 -0.6602,-6.28515 -0.6602,-6.28515 l -19.5176,-15.96094 c 0,0 -0.9732,-0.78871 -2.3652,-0.74023 z" />
    <path
       id="rect62"
       style="fill:url(#radialGradient81)"
       d="m 364.54869,591.46785 -129.5323,142.86589 8.6426,7.6445 129.5323,-142.86586 z m 31.0527,33.16602 -155.082,175.33204 8.6426,7.6445 155.082,-175.33201 z m 32.5489,30.91016 -155.0821,175.33198 8.6426,7.6445 155.082,-175.33196 z m 31.1816,31.85546 -129.8085,141.89912 8.6426,7.6444 129.8085,-141.89898 z m 36.41409,30.47656 -89.32659,98.83746 8.6425,7.6445 89.32659,-98.83743 z"
       sodipodi:nodetypes="ccccccccccccccccccccccccc" />
    <g
       id="g94">
      <ellipse
         style="fill:#ffffff;fill-opacity:0.999131;stroke-width:0.582811"
         id="ellipse90"
         cx="-901.16772"
         cy="-354.15164"
         rx="3.0688446"
         ry="3.6032965"
         transform="scale(-1)" />
      <path
         sodipodi:type="star"
         style="fill:#ffffff;fill-opacity:0.999131"
         id="path83"
         inkscape:flatsided="false"
         sodipodi:sides="4"
         sodipodi:cx="415.32581"
         sodipodi:cy="208.37001"
         sodipodi:r1="48.090767"
         sodipodi:r2="24.75779"
         sodipodi:arg1="1.5707963"
         sodipodi:arg2="2.3343986"
         inkscape:rounded="0.07"
         inkscape:randomized="0"
         d="m 415.32581,256.46078 c -2.42993,0.053 -15.40209,-28.48836 -17.12071,-30.20699 -1.77016,-1.77017 -30.91548,-15.38098 -30.97006,-17.88378 -0.053,-2.42992 28.48835,-15.40209 30.20699,-17.12071 1.77017,-1.77015 15.38098,-30.91547 17.88377,-30.97006 2.42993,-0.053 15.4021,28.48836 17.12071,30.20699 1.77016,1.77018 30.91548,15.38098 30.97006,17.88378 0.053,2.42992 -28.48835,15.40209 -30.20698,17.12071 -1.77018,1.77015 -15.38099,30.91547 -17.88378,30.97006 z"
         transform="matrix(0.65683493,0,0,0.64320827,278.08438,14.710184)" />
      <path
         sodipodi:type="star"
         style="fill:#ffffff;fill-opacity:0.999131"
         id="path84"
         inkscape:flatsided="false"
         sodipodi:sides="4"
         sodipodi:cx="415.32581"
         sodipodi:cy="208.37001"
         sodipodi:r1="48.090767"
         sodipodi:r2="24.75779"
         sodipodi:arg1="1.5707963"
         sodipodi:arg2="2.3343986"
         inkscape:rounded="0.07"
         inkscape:randomized="0"
         d="m 415.32581,256.46078 c -2.42993,0.053 -15.40209,-28.48836 -17.12071,-30.20699 -1.77016,-1.77017 -30.91548,-15.38098 -30.97006,-17.88378 -0.053,-2.42992 28.48835,-15.40209 30.20699,-17.12071 1.77017,-1.77015 15.38098,-30.91547 17.88377,-30.97006 2.42993,-0.053 15.4021,28.48836 17.12071,30.20699 1.77016,1.77018 30.91548,15.38098 30.97006,17.88378 0.053,2.42992 -28.48835,15.40209 -30.20698,17.12071 -1.77018,1.77015 -15.38099,30.91547 -17.88378,30.97006 z"
         transform="matrix(0.15302765,0,0,0.17298814,823.47441,424.61963)" />
      <path
         sodipodi:type="star"
         style="fill:#ffffff;fill-opacity:0.999131"
         id="path85"
         inkscape:flatsided="false"
         sodipodi:sides="4"
         sodipodi:cx="415.32581"
         sodipodi:cy="208.37001"
         sodipodi:r1="48.090767"
         sodipodi:r2="24.75779"
         sodipodi:arg1="1.5707963"
         sodipodi:arg2="2.3343986"
         inkscape:rounded="0.07"
         inkscape:randomized="0"
         d="m 415.32581,256.46078 c -2.42993,0.053 -15.40209,-28.48836 -17.12071,-30.20699 -1.77016,-1.77017 -30.91548,-15.38098 -30.97006,-17.88378 -0.053,-2.42992 28.48835,-15.40209 30.20699,-17.12071 1.77017,-1.77015 15.38098,-30.91547 17.88377,-30.97006 2.42993,-0.053 15.4021,28.48836 17.12071,30.20699 1.77016,1.77018 30.91548,15.38098 30.97006,17.88378 0.053,2.42992 -28.48835,15.40209 -30.20698,17.12071 -1.77018,1.77015 -15.38099,30.91547 -17.88378,30.97006 z"
         transform="matrix(0.3377113,0,0,0.34839166,674.36041,544.19676)" />
      <path
         sodipodi:type="star"
         style="fill:#ffffff;fill-opacity:0.999131"
         id="path86"
         inkscape:flatsided="false"
         sodipodi:sides="4"
         sodipodi:cx="415.32581"
         sodipodi:cy="208.37001"
         sodipodi:r1="48.090767"
         sodipodi:r2="24.75779"
         sodipodi:arg1="1.5707963"
         sodipodi:arg2="2.3343986"
         inkscape:rounded="0.07"
         inkscape:randomized="0"
         d="m 415.32581,256.46078 c -2.42993,0.053 -15.40209,-28.48836 -17.12071,-30.20699 -1.77016,-1.77017 -30.91548,-15.38098 -30.97006,-17.88378 -0.053,-2.42992 28.48835,-15.40209 30.20699,-17.12071 1.77017,-1.77015 15.38098,-30.91547 17.88377,-30.97006 2.42993,-0.053 15.4021,28.48836 17.12071,30.20699 1.77016,1.77018 30.91548,15.38098 30.97006,17.88378 0.053,2.42992 -28.48835,15.40209 -30.20698,17.12071 -1.77018,1.77015 -15.38099,30.91547 -17.88378,30.97006 z"
         transform="matrix(0.15499366,0,0,0.15499096,774.61471,655.17562)" />
      <path
         sodipodi:type="star"
         style="fill:#ffffff;fill-opacity:0.999131"
         id="path87"
         inkscape:flatsided="false"
         sodipodi:sides="4"
         sodipodi:cx="415.32581"
         sodipodi:cy="208.37001"
         sodipodi:r1="48.090767"
         sodipodi:r2="24.75779"
         sodipodi:arg1="1.5707963"
         sodipodi:arg2="2.3343986"
         inkscape:rounded="0.07"
         inkscape:randomized="0"
         d="m 415.32581,256.46078 c -2.42993,0.053 -15.40209,-28.48836 -17.12071,-30.20699 -1.77016,-1.77017 -30.91548,-15.38098 -30.97006,-17.88378 -0.053,-2.42992 28.48835,-15.40209 30.20699,-17.12071 1.77017,-1.77015 15.38098,-30.91547 17.88377,-30.97006 2.42993,-0.053 15.4021,28.48836 17.12071,30.20699 1.77016,1.77018 30.91548,15.38098 30.97006,17.88378 0.053,2.42992 -28.48835,15.40209 -30.20698,17.12071 -1.77018,1.77015 -15.38099,30.91547 -17.88378,30.97006 z"
         transform="matrix(0.22224919,0,0,0.22800342,708.57506,713.8917)" />
      <ellipse
         style="fill:#ffffff;fill-opacity:0.999131"
         id="path88"
         cx="250.68994"
         cy="185.0835"
         rx="5.6430664"
         ry="5.769043" />
      <ellipse
         style="fill:#ffffff;fill-opacity:0.635689;stroke-width:0.583277"
         id="ellipse88"
         cx="172.21214"
         cy="572.25763"
         rx="3.4430251"
         ry="3.2168295" />
      <ellipse
         style="fill:#ffffff;fill-opacity:0.999131;stroke-width:1.1711"
         id="ellipse89"
         cx="215.28214"
         cy="469.14294"
         rx="6.4758501"
         ry="6.8946133" />
      <ellipse
         style="fill:#ffffff;fill-opacity:0.999131;stroke-width:0.436429"
         id="ellipse91"
         cx="-809.39661"
         cy="-193.65031"
         rx="2.3047688"
         ry="2.6904106"
         transform="scale(-1)" />
      <ellipse
         style="fill:#ffffff;fill-opacity:0.999131;stroke-width:0.436429"
         id="ellipse92"
         cx="-806.17004"
         cy="-159.64055"
         rx="2.3047688"
         ry="2.6904106"
         transform="scale(-1)" />
      <ellipse
         style="fill:#ffffff;fill-opacity:0.514734;stroke-width:0.436429"
         id="ellipse93"
         cx="-806.17004"
         cy="-159.64055"
         rx="2.3047688"
         ry="2.6904106"
         transform="scale(-1)" />
      <ellipse
         style="fill:#ffffff;fill-opacity:0.749775;stroke-width:0.940829"
         id="ellipse94"
         cx="-915.22491"
         cy="-600.65118"
         rx="5.3041029"
         ry="5.4328661"
         transform="scale(-1)" />
    </g>
    <path
       d="m 231.88544,634.7491 -85.31827,92.49106 5.69257,4.94903 85.31827,-92.49103 z"
       style="fill:url(#linearGradient97);stroke-width:0.653007"
       id="path1-9" />
    <path
       d="m 715.13906,716.06914 -55.15115,113.10241 6.87437,3.10506 55.15115,-113.10238 z"
       style="fill:url(#linearGradient98);stroke-width:0.653007"
       id="path97"
       inkscape:transform-center-x="26.213797"
       inkscape:transform-center-y="54.070355" />
  </g>
</svg>
